<mxfile host="app.diagrams.net" modified="2022-06-03T23:45:36.530Z" agent="5.0 (Windows NT 10.0; Win64; x64) AppleWebKit/537.36 (KHTML, like Gecko) Chrome/100.0.4896.127 Safari/537.36 OPR/86.0.4363.70" etag="G6IQhYhyWjAQ2kMgmEiX" version="19.0.0" type="github">
  <diagram id="_UcRD15p4rgjld_aMN5q" name="Page-1">
    <mxGraphModel dx="2195" dy="805" grid="1" gridSize="10" guides="1" tooltips="1" connect="1" arrows="1" fold="1" page="1" pageScale="1" pageWidth="827" pageHeight="1169" math="0" shadow="0">
      <root>
        <mxCell id="0" />
        <mxCell id="1" parent="0" />
        <mxCell id="iENFUseU7_7QMmpnDHHZ-54" style="edgeStyle=none;rounded=0;orthogonalLoop=1;jettySize=auto;html=1;entryX=0;entryY=0.5;entryDx=0;entryDy=0;fontSize=16;endArrow=none;endFill=0;" parent="1" target="iENFUseU7_7QMmpnDHHZ-19" edge="1">
          <mxGeometry relative="1" as="geometry">
            <mxPoint x="-10" y="450" as="sourcePoint" />
          </mxGeometry>
        </mxCell>
        <mxCell id="iENFUseU7_7QMmpnDHHZ-55" style="edgeStyle=none;rounded=0;orthogonalLoop=1;jettySize=auto;html=1;entryX=0;entryY=0.5;entryDx=0;entryDy=0;fontSize=16;endArrow=none;endFill=0;" parent="1" target="iENFUseU7_7QMmpnDHHZ-20" edge="1">
          <mxGeometry relative="1" as="geometry">
            <mxPoint y="460" as="sourcePoint" />
          </mxGeometry>
        </mxCell>
        <mxCell id="iENFUseU7_7QMmpnDHHZ-56" style="edgeStyle=none;rounded=0;orthogonalLoop=1;jettySize=auto;html=1;entryX=0;entryY=0.5;entryDx=0;entryDy=0;fontSize=16;endArrow=none;endFill=0;" parent="1" target="iENFUseU7_7QMmpnDHHZ-22" edge="1">
          <mxGeometry relative="1" as="geometry">
            <mxPoint x="10" y="460" as="sourcePoint" />
          </mxGeometry>
        </mxCell>
        <mxCell id="iENFUseU7_7QMmpnDHHZ-57" style="edgeStyle=none;rounded=0;orthogonalLoop=1;jettySize=auto;html=1;entryX=0;entryY=0.5;entryDx=0;entryDy=0;fontSize=16;endArrow=none;endFill=0;" parent="1" target="iENFUseU7_7QMmpnDHHZ-31" edge="1">
          <mxGeometry relative="1" as="geometry">
            <mxPoint y="480" as="sourcePoint" />
          </mxGeometry>
        </mxCell>
        <mxCell id="iENFUseU7_7QMmpnDHHZ-59" style="edgeStyle=none;rounded=0;orthogonalLoop=1;jettySize=auto;html=1;entryX=0;entryY=0.5;entryDx=0;entryDy=0;fontSize=16;endArrow=none;endFill=0;" parent="1" target="iENFUseU7_7QMmpnDHHZ-32" edge="1">
          <mxGeometry relative="1" as="geometry">
            <mxPoint y="510" as="sourcePoint" />
          </mxGeometry>
        </mxCell>
        <mxCell id="iENFUseU7_7QMmpnDHHZ-60" style="edgeStyle=none;rounded=0;orthogonalLoop=1;jettySize=auto;html=1;entryX=0.016;entryY=0.379;entryDx=0;entryDy=0;entryPerimeter=0;fontSize=16;endArrow=none;endFill=0;" parent="1" target="iENFUseU7_7QMmpnDHHZ-30" edge="1">
          <mxGeometry relative="1" as="geometry">
            <mxPoint x="10" y="570" as="sourcePoint" />
          </mxGeometry>
        </mxCell>
        <mxCell id="iENFUseU7_7QMmpnDHHZ-61" style="edgeStyle=none;rounded=0;orthogonalLoop=1;jettySize=auto;html=1;entryX=0;entryY=0.5;entryDx=0;entryDy=0;fontSize=16;endArrow=none;endFill=0;" parent="1" target="iENFUseU7_7QMmpnDHHZ-40" edge="1">
          <mxGeometry relative="1" as="geometry">
            <mxPoint x="10" y="590" as="sourcePoint" />
          </mxGeometry>
        </mxCell>
        <mxCell id="iENFUseU7_7QMmpnDHHZ-5" value="&lt;font style=&quot;font-size: 16px;&quot;&gt;Cliente&lt;br style=&quot;&quot;&gt;&lt;/font&gt;" style="shape=umlActor;verticalLabelPosition=bottom;verticalAlign=top;html=1;" parent="1" vertex="1">
          <mxGeometry x="-50" y="470" width="50" height="100" as="geometry" />
        </mxCell>
        <mxCell id="iENFUseU7_7QMmpnDHHZ-17" value="Use Case" style="swimlane;fontSize=16;" parent="1" vertex="1">
          <mxGeometry x="140" y="90" width="790" height="840" as="geometry" />
        </mxCell>
        <mxCell id="iENFUseU7_7QMmpnDHHZ-19" value="Iniciar Compra" style="ellipse;whiteSpace=wrap;html=1;fontSize=16;" parent="iENFUseU7_7QMmpnDHHZ-17" vertex="1">
          <mxGeometry x="30" y="40" width="130" height="60" as="geometry" />
        </mxCell>
        <mxCell id="iENFUseU7_7QMmpnDHHZ-20" value="Ler código de barras" style="ellipse;whiteSpace=wrap;html=1;fontSize=16;" parent="iENFUseU7_7QMmpnDHHZ-17" vertex="1">
          <mxGeometry x="25" y="130" width="140" height="60" as="geometry" />
        </mxCell>
        <mxCell id="iENFUseU7_7QMmpnDHHZ-22" value="Exibir lista de compras" style="ellipse;whiteSpace=wrap;html=1;fontSize=16;" parent="iENFUseU7_7QMmpnDHHZ-17" vertex="1">
          <mxGeometry x="30" y="230" width="130" height="60" as="geometry" />
        </mxCell>
        <mxCell id="iENFUseU7_7QMmpnDHHZ-30" value="Realizar pagamento" style="ellipse;whiteSpace=wrap;html=1;fontSize=16;" parent="iENFUseU7_7QMmpnDHHZ-17" vertex="1">
          <mxGeometry x="25" y="580" width="140" height="70" as="geometry" />
        </mxCell>
        <mxCell id="iENFUseU7_7QMmpnDHHZ-31" value="Editar ou remover itens da lista de compras" style="ellipse;whiteSpace=wrap;html=1;fontSize=16;" parent="iENFUseU7_7QMmpnDHHZ-17" vertex="1">
          <mxGeometry x="17.5" y="320" width="155" height="70" as="geometry" />
        </mxCell>
        <mxCell id="iENFUseU7_7QMmpnDHHZ-32" value="Colocar produtos na cesta de pesagem" style="ellipse;whiteSpace=wrap;html=1;fontSize=16;" parent="iENFUseU7_7QMmpnDHHZ-17" vertex="1">
          <mxGeometry x="17.5" y="410" width="155" height="60" as="geometry" />
        </mxCell>
        <mxCell id="iENFUseU7_7QMmpnDHHZ-35" value="Preencher dados do cartão de crédito" style="ellipse;whiteSpace=wrap;html=1;fontSize=16;" parent="iENFUseU7_7QMmpnDHHZ-17" vertex="1">
          <mxGeometry x="290" y="580" width="150" height="70" as="geometry" />
        </mxCell>
        <mxCell id="iENFUseU7_7QMmpnDHHZ-40" value="Finalizar compra" style="ellipse;whiteSpace=wrap;html=1;fontSize=16;" parent="iENFUseU7_7QMmpnDHHZ-17" vertex="1">
          <mxGeometry x="30" y="700" width="140" height="70" as="geometry" />
        </mxCell>
        <mxCell id="iENFUseU7_7QMmpnDHHZ-41" value="Emitir nota fiscal" style="ellipse;whiteSpace=wrap;html=1;fontSize=16;" parent="iENFUseU7_7QMmpnDHHZ-17" vertex="1">
          <mxGeometry x="210" y="800" width="135" height="40" as="geometry" />
        </mxCell>
        <mxCell id="iENFUseU7_7QMmpnDHHZ-38" value="Verificar dados do cartão de crédito" style="ellipse;whiteSpace=wrap;html=1;fontSize=16;" parent="iENFUseU7_7QMmpnDHHZ-17" vertex="1">
          <mxGeometry x="570" y="582.5" width="150" height="67.5" as="geometry" />
        </mxCell>
        <mxCell id="iENFUseU7_7QMmpnDHHZ-39" value="Faturar compra" style="ellipse;whiteSpace=wrap;html=1;fontSize=16;" parent="iENFUseU7_7QMmpnDHHZ-17" vertex="1">
          <mxGeometry x="570" y="705" width="150" height="60" as="geometry" />
        </mxCell>
        <mxCell id="iENFUseU7_7QMmpnDHHZ-21" value="Selecionar Produto" style="ellipse;whiteSpace=wrap;html=1;fontSize=16;" parent="iENFUseU7_7QMmpnDHHZ-17" vertex="1">
          <mxGeometry x="300" y="130" width="140" height="60" as="geometry" />
        </mxCell>
        <mxCell id="iENFUseU7_7QMmpnDHHZ-44" value="&amp;lt;&amp;lt;extend&amp;gt;&amp;gt;" style="html=1;verticalAlign=bottom;labelBackgroundColor=none;endArrow=open;endFill=0;dashed=1;rounded=0;fontSize=16;exitX=1;exitY=0.5;exitDx=0;exitDy=0;" parent="iENFUseU7_7QMmpnDHHZ-17" source="iENFUseU7_7QMmpnDHHZ-20" edge="1">
          <mxGeometry width="160" relative="1" as="geometry">
            <mxPoint x="180" y="159" as="sourcePoint" />
            <mxPoint x="300" y="159.33" as="targetPoint" />
            <mxPoint as="offset" />
          </mxGeometry>
        </mxCell>
        <mxCell id="iENFUseU7_7QMmpnDHHZ-47" value="&amp;lt;&amp;lt;extend&amp;gt;&amp;gt;" style="html=1;verticalAlign=bottom;labelBackgroundColor=none;endArrow=open;endFill=0;dashed=1;rounded=0;fontSize=16;entryX=0;entryY=0.5;entryDx=0;entryDy=0;exitX=1;exitY=0.5;exitDx=0;exitDy=0;" parent="iENFUseU7_7QMmpnDHHZ-17" source="iENFUseU7_7QMmpnDHHZ-30" target="iENFUseU7_7QMmpnDHHZ-35" edge="1">
          <mxGeometry width="160" relative="1" as="geometry">
            <mxPoint x="158.01" y="592.9799999999998" as="sourcePoint" />
            <mxPoint x="290.0049999999999" y="650" as="targetPoint" />
            <mxPoint as="offset" />
          </mxGeometry>
        </mxCell>
        <mxCell id="iENFUseU7_7QMmpnDHHZ-51" value="&amp;lt;&amp;lt;extend&amp;gt;&amp;gt;" style="html=1;verticalAlign=bottom;labelBackgroundColor=none;endArrow=open;endFill=0;dashed=1;rounded=0;fontSize=16;entryX=0;entryY=0;entryDx=0;entryDy=0;exitX=0.945;exitY=0.805;exitDx=0;exitDy=0;exitPerimeter=0;" parent="iENFUseU7_7QMmpnDHHZ-17" source="iENFUseU7_7QMmpnDHHZ-40" target="iENFUseU7_7QMmpnDHHZ-41" edge="1">
          <mxGeometry width="160" relative="1" as="geometry">
            <mxPoint x="170" y="740" as="sourcePoint" />
            <mxPoint x="295" y="740" as="targetPoint" />
            <mxPoint as="offset" />
          </mxGeometry>
        </mxCell>
        <mxCell id="iENFUseU7_7QMmpnDHHZ-52" value="&amp;lt;&amp;lt;include&amp;gt;&amp;gt;" style="html=1;verticalAlign=bottom;labelBackgroundColor=none;endArrow=open;endFill=0;dashed=1;rounded=0;fontSize=16;" parent="iENFUseU7_7QMmpnDHHZ-17" edge="1">
          <mxGeometry width="160" relative="1" as="geometry">
            <mxPoint x="440" y="615.58" as="sourcePoint" />
            <mxPoint x="570" y="616" as="targetPoint" />
          </mxGeometry>
        </mxCell>
        <mxCell id="iENFUseU7_7QMmpnDHHZ-62" style="edgeStyle=none;rounded=0;orthogonalLoop=1;jettySize=auto;html=1;entryX=1;entryY=0.5;entryDx=0;entryDy=0;fontSize=16;endArrow=none;endFill=0;" parent="1" target="iENFUseU7_7QMmpnDHHZ-38" edge="1">
          <mxGeometry relative="1" as="geometry">
            <mxPoint x="1020" y="730" as="sourcePoint" />
          </mxGeometry>
        </mxCell>
        <mxCell id="iENFUseU7_7QMmpnDHHZ-63" style="edgeStyle=none;rounded=0;orthogonalLoop=1;jettySize=auto;html=1;entryX=1;entryY=0.5;entryDx=0;entryDy=0;fontSize=16;endArrow=none;endFill=0;" parent="1" target="iENFUseU7_7QMmpnDHHZ-39" edge="1">
          <mxGeometry relative="1" as="geometry">
            <mxPoint x="1040" y="760" as="sourcePoint" />
          </mxGeometry>
        </mxCell>
        <mxCell id="iENFUseU7_7QMmpnDHHZ-34" value="&lt;font style=&quot;font-size: 16px;&quot;&gt;Sistema de banco&lt;br&gt;&lt;br style=&quot;&quot;&gt;&lt;/font&gt;" style="shape=umlActor;verticalLabelPosition=bottom;verticalAlign=top;html=1;" parent="1" vertex="1">
          <mxGeometry x="1030" y="700" width="50" height="100" as="geometry" />
        </mxCell>
      </root>
    </mxGraphModel>
  </diagram>
</mxfile>
